<?xml version="1.0" encoding="utf-8"?>
<!-- Generator: Adobe Illustrator 22.1.0, SVG Export Plug-In . SVG Version: 6.00 Build 0)  -->
<svg version="1.1" id="Layer_1" xmlns="http://www.w3.org/2000/svg" xmlns:xlink="http://www.w3.org/1999/xlink" x="0px" y="0px"
	 viewBox="0 0 612 792" style="enable-background:new 0 0 612 792;" xml:space="preserve">
<g>
	<path d="M264.3,270.7c0-0.2,0.1-0.3,0.3-0.4l0.3-0.1c0.2,0,0.3,0,0.4,0.1l6.9,7.8c0,0,0,0,0.1,0l1.6-10.3c0-0.1,0.1-0.2,0.3-0.3
		l0.3-0.1c0.2-0.1,0.4,0,0.4,0.2l6,12.3c0.1,0.3,0,0.5-0.2,0.5l-1.7,0.5c-0.2,0.1-0.4-0.1-0.4-0.2l-3.2-7c0,0-0.1,0-0.1,0l-1.2,8.5
		c0,0.1-0.1,0.3-0.3,0.3l-0.3,0.1c-0.2,0.1-0.3,0-0.4-0.1l-5.6-6.6c0,0,0,0-0.1,0l1,7.6c0,0.1-0.1,0.3-0.3,0.4l-1.7,0.5
		c-0.2,0.1-0.5-0.1-0.5-0.3L264.3,270.7z"/>
	<path d="M294.7,264.7c0-0.2,0.1-0.4,0.4-0.4l8.1-0.5c0.2,0,0.4,0.2,0.4,0.4l0.1,1.6c0,0.2-0.1,0.4-0.4,0.4l-5.9,0.3l0.2,3.3
		l4.9-0.3c0.2,0,0.4,0.2,0.4,0.4l0.1,1.7c0,0.2-0.2,0.4-0.4,0.4l-4.9,0.3l0.2,3.5l5.9-0.3c0.2,0,0.4,0.2,0.4,0.4l0.1,1.6
		c0,0.2-0.1,0.4-0.4,0.4l-8.1,0.5c-0.2,0-0.4-0.2-0.4-0.4L294.7,264.7z"/>
	<path d="M327.6,265.4c1.8,0.3,3.4,1.2,4.5,2.6c0.1,0.2,0.1,0.4-0.1,0.6l-1.4,1.1c-0.2,0.1-0.4,0.1-0.5-0.1
		c-0.7-0.9-1.7-1.4-2.8-1.6c-2.5-0.4-4.8,1.4-5.1,3.9c-0.4,2.5,1.3,4.8,3.7,5.2c1.1,0.2,2,0,2.4-0.1l0.3-1.7L327,275
		c-0.2,0-0.4-0.2-0.3-0.4l0.2-1.6c0-0.2,0.2-0.4,0.4-0.3l3.8,0.6c0.2,0,0.3,0.2,0.3,0.4l-0.8,5.1c0,0.2-0.1,0.2-0.2,0.3
		c0,0-2.2,1-5.1,0.5c-3.9-0.6-6.6-4.2-6-8.2S323.6,264.8,327.6,265.4z"/>
	<path d="M343.4,283.1l10.7-10.3c0.1-0.1,0.2-0.1,0.4-0.1l0.2,0.1c0.2,0.1,0.2,0.2,0.2,0.3l0.8,14.8c0,0.3-0.2,0.5-0.5,0.4l-1.6-0.6
		c-0.3-0.1-0.4-0.3-0.4-0.6l-0.1-2.4l-5.6-2.2l-1.7,1.7c-0.1,0.2-0.4,0.3-0.7,0.2l-1.6-0.6C343.2,283.6,343.2,283.3,343.4,283.1z
		 M353,282.3l-0.3-4.8l-0.1,0l-3.4,3.4L353,282.3z"/>
	<path d="M375.6,283.6c0.1-0.2,0.4-0.2,0.5-0.1l0.4,0.3l1.9,12l0,0l4.7-6.8c0.1-0.2,0.3-0.2,0.5-0.1l1.5,1c0.2,0.1,0.2,0.4,0.1,0.5
		l-7.6,11.1c-0.1,0.2-0.4,0.2-0.5,0.1l-0.4-0.3L375,289l0,0l-4.8,7.1c-0.1,0.2-0.3,0.2-0.5,0.1l-1.5-1c-0.2-0.1-0.2-0.4-0.1-0.5
		L375.6,283.6z"/>
	<path d="M401.5,322.8l1.4-0.1c0.3,0,0.5,0.2,0.5,0.5c0,0.1,0,2.1,0.7,3.2c0.6,0.8,1.6,1.1,2.3,0.6c0.8-0.6,0.9-1.7,0.5-3.5
		c-0.5-2-0.6-4.2,1.3-5.6c1.5-1,3.9-1.1,5.7,1.4c1.2,1.7,1.2,3.5,1.2,4c0,0.2-0.2,0.5-0.5,0.5l-1.4,0c-0.3,0-0.6-0.1-0.6-0.4
		c0-0.2-0.1-2-0.7-2.9c-0.7-0.9-1.6-1-2.2-0.6c-0.8,0.5-0.9,1.5-0.5,3.2c0.5,2,0.8,4.5-1.3,6c-1.7,1.2-4.3,0.8-5.9-1.5
		c-1.5-2.1-1.4-3.9-1.3-4.5C401.1,323,401.1,322.9,401.5,322.8z"/>
	<path d="M424.8,338.6c0.2-0.1,0.4,0,0.5,0.2l1.9,4.3c1,2.2,0,4.9-2.2,5.9c-2.3,1-4.9,0-5.9-2.2l-1-2.3l-4.3,1.9
		c-0.2,0.1-0.4,0-0.5-0.2l-0.7-1.7c-0.1-0.2,0-0.4,0.2-0.5L424.8,338.6z M421.3,345.6c0.5,1,1.7,1.5,2.7,1c1-0.4,1.4-1.6,0.9-2.7
		l-0.9-2.1l-3.7,1.6L421.3,345.6z"/>
	<path d="M420.6,364l14.5,3.2c0.1,0,0.2,0.1,0.3,0.3l0,0.2c0,0.2,0,0.3-0.1,0.4l-11.8,8.9c-0.2,0.2-0.5,0.1-0.6-0.2l-0.4-1.7
		c-0.1-0.3,0-0.5,0.3-0.7l1.9-1.4l-1.3-5.8l-2.3-0.5c-0.2,0-0.4-0.2-0.5-0.5l-0.4-1.7C420.1,364.1,420.3,363.9,420.6,364z
		 M426.6,371.5l3.9-2.9l0-0.1l-4.7-1L426.6,371.5z"/>
	<path d="M437.9,390.6c0.2,0,0.4,0.2,0.4,0.4l0,1.9c0,0.2-0.2,0.4-0.4,0.4l-8.2-0.1c-1.7,0-3.1,1.1-3.1,2.9c0,1.7,1.3,2.9,3,3
		l8.2,0.1c0.2,0,0.4,0.2,0.4,0.4l0,1.9c0,0.2-0.2,0.4-0.4,0.4l-8.3-0.1c-3,0-5.5-2.5-5.4-5.7c0.1-3.1,2.5-5.5,5.6-5.5L437.9,390.6z"
		/>
	<path d="M435.6,419.9c0.2,0,0.3,0.2,0.3,0.5l-0.4,1.8c0,0.2-0.3,0.3-0.5,0.3l-11-2.3l-1.1,5c0,0.2-0.3,0.3-0.5,0.3L421,425
		c-0.2,0-0.3-0.2-0.3-0.5l1.5-7.2c0-0.2,0.3-0.3,0.5-0.3L435.6,419.9z"/>
	<path d="M428.8,443.9c0.2,0.1,0.3,0.3,0.2,0.5l-1.9,4.3c-1.6,3.5-5.7,5.1-9.2,3.6c-3.5-1.6-5.1-5.7-3.6-9.3l1.9-4.3
		c0.1-0.2,0.3-0.3,0.5-0.2L428.8,443.9z M416.6,443.9c-1.1,2.4,0,4.9,2.4,6c2.4,1.1,4.9,0.1,6-2.3l0.9-2.1l-8.4-3.7L416.6,443.9z"/>
	<path d="M414.8,469.9c0.2,0.1,0.2,0.4,0.1,0.5l-1.1,1.5c-0.1,0.2-0.4,0.2-0.5,0.1l-10.8-7.6c-0.2-0.1-0.2-0.4-0.1-0.5l1.1-1.5
		c0.1-0.2,0.4-0.2,0.5-0.1L414.8,469.9z"/>
	<path d="M401.9,486.5c0.1,0.1,0.1,0.4,0,0.5l-0.4,0.3l-12.1-0.6l0,0l5.7,6c0.1,0.1,0.1,0.4,0,0.5l-1.3,1.3c-0.1,0.1-0.4,0.1-0.5,0
		l-9.3-9.7c-0.1-0.1-0.1-0.4,0-0.5l0.3-0.3l12.4,0.8l0,0l-6-6.2c-0.1-0.1-0.1-0.4,0-0.5l1.3-1.3c0.1-0.1,0.4-0.1,0.5,0L401.9,486.5z
		"/>
	<path d="M373.2,509.6c-1.5,0.9-3.4,1.2-5.1,0.9c-0.2-0.1-0.4-0.3-0.3-0.5l0.4-1.8c0.1-0.2,0.2-0.3,0.4-0.3c1.1,0.2,2.2,0,3.2-0.6
		c2.1-1.3,2.7-4.1,1.5-6.3c-1.3-2.1-4-2.9-6.2-1.6c-1,0.6-1.5,1.3-1.8,1.6l0.9,1.5l1.4-0.8c0.2-0.1,0.4-0.1,0.5,0.1l0.8,1.4
		c0.1,0.2,0.1,0.4-0.1,0.5l-3.3,2c-0.2,0.1-0.4,0-0.5-0.1l-2.6-4.4c-0.1-0.1-0.1-0.3,0-0.4c0,0,1.1-2.2,3.6-3.7c3.4-2,7.8-1,9.8,2.5
		C377.7,503.1,376.6,507.5,373.2,509.6z"/>
	<path d="M328.1,525.9c-2,0.4-3.5,0-5.1-1c-0.2-0.1-0.2-0.4-0.1-0.5l1-1.5c0.1-0.2,0.3-0.2,0.5-0.1c1,0.6,2.1,0.8,3.2,0.6
		c2.5-0.4,4-2.9,3.6-5.4c-0.4-2.5-2.7-4.2-5.2-3.8c-1.2,0.2-2.1,0.8-2.8,1.7c-0.1,0.2-0.4,0.2-0.5,0.1l-1.4-1
		c-0.2-0.1-0.2-0.4-0.1-0.5c1.1-1.5,2.7-2.4,4.5-2.8c3.9-0.7,7.7,1.9,8.4,5.8C334.7,521.5,332.1,525.2,328.1,525.9z"/>
	<path d="M305.7,527.2c0,0.2-0.2,0.4-0.4,0.4l-5.7-0.2c-2.4-0.1-4.3-2.1-4.2-4.5c0.1-1.8,1.4-3.3,3.1-3.9l-2.5-5.2
		c-0.1-0.3,0-0.6,0.4-0.6l2.1,0.1c0.2,0,0.3,0.1,0.3,0.2l2.4,5.4l2.2,0.1l0.2-5.1c0-0.2,0.2-0.4,0.4-0.4l1.8,0.1
		c0.2,0,0.4,0.2,0.4,0.4L305.7,527.2z M300,521c-1.1,0-2,0.8-2.1,2c0,1.1,0.8,2,1.9,2l3.3,0.1l0.2-4L300,521z"/>
	<path d="M277.6,524.1c0,0.2-0.2,0.3-0.5,0.3l-7.9-2c-0.2-0.1-0.3-0.3-0.3-0.5l0.4-1.6c0-0.2,0.2-0.3,0.5-0.3l5.7,1.5l0.8-3.2
		l-4.8-1.2c-0.2,0-0.3-0.3-0.3-0.5l0.4-1.6c0.1-0.2,0.3-0.3,0.5-0.3l4.8,1.2l0.9-3.4l-5.7-1.5c-0.2-0.1-0.3-0.3-0.3-0.5l0.4-1.6
		c0-0.2,0.2-0.3,0.5-0.3l7.9,2c0.2,0.1,0.3,0.3,0.3,0.5L277.6,524.1z"/>
	<path d="M259.8,504.7l-11.5,9.3c-0.1,0.1-0.2,0.1-0.4,0l-0.2-0.1c-0.2-0.1-0.2-0.2-0.2-0.3l0.5-14.8c0-0.3,0.3-0.4,0.5-0.3l1.6,0.8
		c0.3,0.1,0.3,0.3,0.3,0.6l-0.1,2.4l5.4,2.7l1.8-1.5c0.2-0.1,0.4-0.2,0.7-0.1l1.6,0.8C260,504.2,260,504.6,259.8,504.7z
		 M250.1,504.7l-0.2,4.8l0.1,0l3.7-3.1L250.1,504.7z"/>
	<path d="M228.5,499.1l2.4,1.9c0.2,0.1,0.2,0.4,0.1,0.5l-1,1.3c-0.1,0.2-0.4,0.2-0.5,0.1l-6.9-5.3c-0.2-0.1-0.2-0.4-0.1-0.5l1-1.3
		c0.1-0.2,0.4-0.2,0.5-0.1l2.4,1.9l6.8-8.9c0.1-0.2,0.4-0.2,0.5-0.1l1.5,1.1c0.2,0.1,0.2,0.4,0.1,0.5L228.5,499.1z"/>
	<path d="M210.4,485.6c-0.1,0.1-0.4,0.1-0.5,0l-1.3-1.4c-0.1-0.1-0.1-0.4,0-0.5l9.7-9c0.1-0.1,0.4-0.1,0.5,0l1.3,1.4
		c0.1,0.1,0.1,0.4,0,0.5L210.4,485.6z"/>
	<path d="M198.4,470.7c-0.2,0.2-0.5,0.2-0.6,0l-1.1-1.7c-0.1-0.2-0.1-0.3,0-0.4l5.3-7.8l-0.1-0.1l-9.3,1.3c-0.1,0-0.3,0-0.4-0.2
		l-1.1-1.7c-0.2-0.3,0-0.5,0.3-0.6l14.7-1.9c0.1,0,0.3,0,0.4,0.2l0.1,0.2c0.1,0.2,0.1,0.3,0,0.4L198.4,470.7z"/>
	<path d="M184.1,444.4c-0.2,0.1-0.4,0-0.5-0.2l-2.8-7.7c-0.1-0.2,0-0.4,0.2-0.5l1.5-0.6c0.2-0.1,0.4,0,0.5,0.2l2,5.6l3.1-1.1
		l-1.7-4.6c-0.1-0.2,0-0.4,0.2-0.5l1.6-0.6c0.2-0.1,0.4,0,0.5,0.2l1.7,4.6l3.3-1.2l-2-5.6c-0.1-0.2,0-0.4,0.2-0.5l1.5-0.6
		c0.2-0.1,0.4,0,0.5,0.2l2.8,7.7c0.1,0.2,0,0.4-0.2,0.5L184.1,444.4z"/>
</g>
</svg>
